<svg width="12" height="9" viewBox="0 0 12 9" fill="none" xmlns="http://www.w3.org/2000/svg">
<path d="M11.9245 0.617114C11.8742 0.495716 11.8004 0.385427 11.7074 0.292554C11.6146 0.199577 11.5043 0.125819 11.3829 0.0754948C11.2615 0.0251705 11.1314 -0.000732422 10.9999 -0.000732422C10.8685 -0.000732422 10.7384 0.0251705 10.617 0.0754948C10.4956 0.125819 10.3853 0.199577 10.2924 0.292554L3.99995 6.5863L1.70745 4.29255C1.51981 4.10491 1.26531 3.9995 0.999946 3.9995C0.734582 3.9995 0.480086 4.10491 0.292445 4.29255C0.104805 4.48019 -0.000610352 4.73469 -0.000610352 5.00005C-0.000610352 5.26542 0.104805 5.51991 0.292445 5.70755L3.29245 8.70755C3.38532 8.80053 3.49561 8.87429 3.61701 8.92461C3.7384 8.97494 3.86853 9.00084 3.99995 9.00084C4.13136 9.00084 4.26149 8.97494 4.38289 8.92461C4.50428 8.87429 4.61457 8.80053 4.70745 8.70755L11.7074 1.70755C11.8004 1.61468 11.8742 1.50439 11.9245 1.38299C11.9748 1.2616 12.0007 1.13147 12.0007 1.00005C12.0007 0.868639 11.9748 0.738512 11.9245 0.617114Z" fill="white"/>
</svg>
